<?xml version="1.0" encoding="UTF-8"?>
<svg id="Layer_1" data-name="Layer 1" xmlns="http://www.w3.org/2000/svg" viewBox="0 0 208 26.28">
  <defs>
    <style>
      .cls-1 {
        fill: #9d86be;
        font-family: SourceSansPro-Regular, 'Source Sans Pro';
        font-size: 21px;
      }

      .cls-2 {
        letter-spacing: 0em;
      }

      .cls-3 {
        opacity: .8;
      }

      .cls-4 {
        letter-spacing: 0em;
      }

      .cls-5 {
        fill: #9e86be;
      }

      .cls-5, .cls-6, .cls-7 {
        stroke-width: 0px;
      }

      .cls-6 {
        fill: #664a9e;
      }

      .cls-7 {
        fill: #fff;
      }
    </style>
  </defs>
  <g class="cls-3">
    <path class="cls-7" d="M125.01,5.67h4.09c2.79,0,4.72.94,4.72,3.36,0,1.36-.71,2.58-2.02,3v.08c1.66.31,2.81,1.41,2.81,3.3,0,2.71-2.14,4.03-5.23,4.03h-4.39V5.67ZM128.79,11.53c2.35,0,3.32-.86,3.32-2.27,0-1.6-1.09-2.21-3.23-2.21h-2.12v4.47h2.04ZM129.14,18.05c2.37,0,3.76-.86,3.76-2.71,0-1.7-1.34-2.48-3.76-2.48h-2.39v5.19h2.39Z"/>
    <path class="cls-7" d="M136.56,16.79c0-2.23,1.91-3.34,6.26-3.82,0-1.3-.42-2.56-2.1-2.56-1.18,0-2.25.55-3.04,1.09l-.67-1.2c.94-.61,2.37-1.32,4.01-1.32,2.5,0,3.55,1.66,3.55,4.2v6.26h-1.43l-.15-1.22h-.06c-.97.8-2.1,1.47-3.38,1.47-1.7,0-2.98-1.07-2.98-2.9ZM142.82,16.94v-2.83c-3.4.42-4.58,1.26-4.58,2.56,0,1.16.8,1.64,1.81,1.64s1.79-.48,2.77-1.37Z"/>
    <path class="cls-7" d="M147.02,14.36c0-3.42,2.29-5.38,4.91-5.38,1.34,0,2.27.55,2.98,1.2l-.88,1.13c-.59-.52-1.22-.9-2.04-.9-1.85,0-3.19,1.6-3.19,3.95s1.28,3.91,3.15,3.91c.94,0,1.76-.46,2.39-1.03l.76,1.15c-.92.82-2.08,1.3-3.3,1.3-2.71,0-4.79-1.95-4.79-5.33Z"/>
    <path class="cls-7" d="M157.35,4.49h1.7v10.12h.06l4.35-5.38h1.91l-3.42,4.09,3.88,6.11h-1.89l-2.98-4.91-1.91,2.23v2.69h-1.7V4.49Z"/>
    <path class="cls-7" d="M166.61,14.36c0-3.34,2.25-5.38,4.58-5.38,2.6,0,4.07,1.87,4.07,4.79,0,.36-.02.73-.06.99h-6.89c.13,2.16,1.45,3.55,3.4,3.55.96,0,1.78-.31,2.54-.8l.61,1.13c-.88.57-1.97,1.05-3.36,1.05-2.73,0-4.89-2-4.89-5.33ZM173.75,13.52c0-2.06-.92-3.17-2.52-3.17-1.43,0-2.73,1.15-2.94,3.17h5.46Z"/>
    <path class="cls-7" d="M177.78,9.24h1.43l.15,1.47h.06c.97-.97,2.02-1.72,3.42-1.72,2.14,0,3.11,1.39,3.11,3.99v6.47h-1.72v-6.24c0-1.91-.59-2.73-1.93-2.73-1.05,0-1.76.55-2.79,1.58v7.39h-1.72v-10.2Z"/>
    <path class="cls-7" d="M188.53,14.36c0-3.32,2.1-5.38,4.43-5.38,1.18,0,1.95.44,2.86,1.18l-.08-1.74v-3.93h1.74v14.95h-1.43l-.15-1.2h-.06c-.8.78-1.89,1.45-3.09,1.45-2.56,0-4.22-1.93-4.22-5.33ZM195.73,16.84v-5.33c-.86-.78-1.64-1.07-2.48-1.07-1.64,0-2.94,1.57-2.94,3.9s1.03,3.91,2.81,3.91c.94,0,1.76-.46,2.6-1.41Z"/>
  </g>
  <text class="cls-1" transform="translate(23.92 19.44)"><tspan x="0" y="0">Sh</tspan><tspan class="cls-2" x="22.64" y="0">o</tspan><tspan x="33.94" y="0">w</tspan><tspan class="cls-4" x="49.01" y="0">r</tspan><tspan x="56.09" y="0">oom</tspan></text>
  <polygon class="cls-5" points="21.76 14.95 21.76 2.47 9.28 2.47 21.76 14.95"/>
  <path class="cls-6" d="M21.76,14.95l-8.32,8.32-1.83-1.83c2.47-2.4,2.52-6.36.12-8.83s-6.36-2.52-8.83-.12c-.04.04-.08.08-.12.12l-1.83-1.83L9.28,2.47l12.48,12.48ZM.95,17.03c0,3.45,2.79,6.24,6.24,6.24,1.65,0,3.24-.66,4.41-1.83L2.78,12.62c-1.17,1.17-1.83,2.76-1.83,4.41"/>
</svg>