<?xml version="1.0" encoding="UTF-8"?>
<svg id="Layer_1" data-name="Layer 1" xmlns="http://www.w3.org/2000/svg" viewBox="0 0 208 26.28">
  <defs>
    <style>
      .cls-1 {
        opacity: .8;
      }

      .cls-2 {
        fill: #9d86be;
      }

      .cls-2, .cls-3, .cls-4, .cls-5 {
        stroke-width: 0px;
      }

      .cls-3 {
        fill: #9e86be;
      }

      .cls-4 {
        fill: #664a9e;
      }

      .cls-5 {
        fill: #fff;
      }
    </style>
  </defs>
  <g class="cls-1">
    <path class="cls-5" d="M125.01,5.67h4.09c2.79,0,4.72.94,4.72,3.36,0,1.36-.71,2.58-2.02,3v.08c1.66.31,2.81,1.41,2.81,3.3,0,2.71-2.14,4.03-5.23,4.03h-4.39V5.67ZM128.79,11.53c2.35,0,3.32-.86,3.32-2.27,0-1.6-1.09-2.21-3.23-2.21h-2.12v4.47h2.04ZM129.14,18.05c2.37,0,3.76-.86,3.76-2.71,0-1.7-1.34-2.48-3.76-2.48h-2.39v5.19h2.39Z"/>
    <path class="cls-5" d="M136.56,16.79c0-2.23,1.91-3.34,6.26-3.82,0-1.3-.42-2.56-2.1-2.56-1.18,0-2.25.55-3.04,1.09l-.67-1.2c.94-.61,2.37-1.32,4.01-1.32,2.5,0,3.55,1.66,3.55,4.2v6.26h-1.43l-.15-1.22h-.06c-.97.8-2.1,1.47-3.38,1.47-1.7,0-2.98-1.07-2.98-2.9ZM142.82,16.94v-2.83c-3.4.42-4.58,1.26-4.58,2.56,0,1.16.8,1.64,1.81,1.64s1.79-.48,2.77-1.37Z"/>
    <path class="cls-5" d="M147.02,14.36c0-3.42,2.29-5.38,4.91-5.38,1.34,0,2.27.55,2.98,1.2l-.88,1.13c-.59-.52-1.22-.9-2.04-.9-1.85,0-3.19,1.6-3.19,3.95s1.28,3.91,3.15,3.91c.94,0,1.76-.46,2.39-1.03l.76,1.15c-.92.82-2.08,1.3-3.3,1.3-2.71,0-4.79-1.95-4.79-5.33Z"/>
    <path class="cls-5" d="M157.35,4.49h1.7v10.12h.06l4.35-5.38h1.91l-3.42,4.09,3.88,6.11h-1.89l-2.98-4.91-1.91,2.23v2.69h-1.7V4.49Z"/>
    <path class="cls-5" d="M166.61,14.36c0-3.34,2.25-5.38,4.58-5.38,2.6,0,4.07,1.87,4.07,4.79,0,.36-.02.73-.06.99h-6.89c.13,2.16,1.45,3.55,3.4,3.55.96,0,1.78-.31,2.54-.8l.61,1.13c-.88.57-1.97,1.05-3.36,1.05-2.73,0-4.89-2-4.89-5.33ZM173.75,13.52c0-2.06-.92-3.17-2.52-3.17-1.43,0-2.73,1.15-2.94,3.17h5.46Z"/>
    <path class="cls-5" d="M177.78,9.24h1.43l.15,1.47h.06c.97-.97,2.02-1.72,3.42-1.72,2.14,0,3.11,1.39,3.11,3.99v6.47h-1.72v-6.24c0-1.91-.59-2.73-1.93-2.73-1.05,0-1.76.55-2.79,1.58v7.39h-1.72v-10.2Z"/>
    <path class="cls-5" d="M188.53,14.36c0-3.32,2.1-5.38,4.43-5.38,1.18,0,1.95.44,2.86,1.18l-.08-1.74v-3.93h1.74v14.95h-1.43l-.15-1.2h-.06c-.8.78-1.89,1.45-3.09,1.45-2.56,0-4.22-1.93-4.22-5.33ZM195.73,16.84v-5.33c-.86-.78-1.64-1.07-2.48-1.07-1.64,0-2.94,1.57-2.94,3.9s1.03,3.91,2.81,3.91c.94,0,1.76-.46,2.6-1.41Z"/>
  </g>
  <g>
    <path class="cls-2" d="M24.8,17.66l1.05-1.22c.99,1.03,2.37,1.72,3.8,1.72,1.81,0,2.88-.9,2.88-2.25s-.99-1.85-2.29-2.44l-1.97-.86c-1.3-.55-2.79-1.53-2.79-3.55s1.83-3.65,4.33-3.65c1.64,0,3.09.69,4.07,1.7l-.94,1.13c-.84-.8-1.85-1.3-3.13-1.3-1.53,0-2.56.78-2.56,2.02,0,1.32,1.2,1.83,2.29,2.29l1.95.84c1.6.69,2.83,1.64,2.83,3.67,0,2.18-1.78,3.93-4.68,3.93-1.93,0-3.63-.8-4.83-2.04Z"/>
    <path class="cls-2" d="M36.85,4.49h1.72v4.07l-.06,2.1c.97-.92,1.99-1.68,3.4-1.68,2.14,0,3.11,1.39,3.11,3.99v6.47h-1.72v-6.24c0-1.91-.59-2.73-1.93-2.73-1.05,0-1.76.55-2.79,1.57v7.39h-1.72V4.49Z"/>
    <path class="cls-2" d="M47.52,14.36c0-3.42,2.23-5.38,4.72-5.38s4.72,1.95,4.72,5.38-2.23,5.33-4.72,5.33-4.72-1.95-4.72-5.33ZM55.18,14.36c0-2.35-1.18-3.95-2.94-3.95s-2.94,1.6-2.94,3.95,1.2,3.91,2.94,3.91,2.94-1.57,2.94-3.91Z"/>
    <path class="cls-2" d="M58.35,9.24h1.76l1.51,5.9c.23.97.42,1.89.61,2.83h.08c.23-.94.44-1.89.69-2.83l1.57-5.9h1.68l1.6,5.9c.25.97.48,1.89.71,2.83h.08c.23-.94.42-1.87.63-2.83l1.49-5.9h1.64l-2.73,10.2h-2.1l-1.47-5.48c-.25-.97-.44-1.91-.69-2.94h-.08c-.23,1.03-.44,1.99-.71,2.96l-1.43,5.46h-2.02l-2.83-10.2Z"/>
    <path class="cls-2" d="M74.65,9.24h1.43l.15,1.85h.06c.69-1.28,1.74-2.1,2.9-2.1.44,0,.76.06,1.09.21l-.34,1.51c-.34-.1-.57-.17-.99-.17-.86,0-1.89.63-2.58,2.35v6.55h-1.72v-10.2Z"/>
    <path class="cls-2" d="M80.97,14.36c0-3.42,2.23-5.38,4.72-5.38s4.72,1.95,4.72,5.38-2.23,5.33-4.72,5.33-4.72-1.95-4.72-5.33ZM88.64,14.36c0-2.35-1.18-3.95-2.94-3.95s-2.94,1.6-2.94,3.95,1.2,3.91,2.94,3.91,2.94-1.57,2.94-3.91Z"/>
    <path class="cls-2" d="M92.35,14.36c0-3.42,2.23-5.38,4.72-5.38s4.72,1.95,4.72,5.38-2.23,5.33-4.72,5.33-4.72-1.95-4.72-5.33ZM100.02,14.36c0-2.35-1.18-3.95-2.94-3.95s-2.94,1.6-2.94,3.95,1.2,3.91,2.94,3.91,2.94-1.57,2.94-3.91Z"/>
    <path class="cls-2" d="M104.49,9.24h1.43l.15,1.47h.06c.88-.97,1.95-1.72,3.17-1.72,1.55,0,2.39.73,2.81,1.95,1.07-1.15,2.12-1.95,3.36-1.95,2.1,0,3.11,1.39,3.11,3.99v6.47h-1.72v-6.24c0-1.91-.61-2.73-1.89-2.73-.8,0-1.62.52-2.56,1.57v7.39h-1.72v-6.24c0-1.91-.61-2.73-1.91-2.73-.76,0-1.62.52-2.56,1.57v7.39h-1.72v-10.2Z"/>
  </g>
  <polygon class="cls-3" points="21.76 14.95 21.76 2.47 9.28 2.47 21.76 14.95"/>
  <path class="cls-4" d="M21.76,14.95l-8.32,8.32-1.83-1.83c2.47-2.4,2.52-6.36.12-8.83s-6.36-2.52-8.83-.12c-.04.04-.08.08-.12.12l-1.83-1.83L9.28,2.47l12.48,12.48ZM.95,17.03c0,3.45,2.79,6.24,6.24,6.24,1.65,0,3.24-.66,4.41-1.83L2.78,12.62c-1.17,1.17-1.83,2.76-1.83,4.41"/>
</svg>